  0
SECTION
  2
HEADER
  9
$ANGBASE
  50
0.0
  9
$ANGDIR
  70
1
  9
$MEASUREMENT
  70
1
  0
ENDSEC
  0
SECTION
  2
TABLES
  0
TABLE
  2
LTYPE
  70
4
  0
LTYPE
  5
40F
  2
CONTINUOUS
  70
0
  3
Solid line
  72
65
  73
0
  40
0.0
  0
LTYPE
  5
410
  2
DASHDOT
 70
0
  3
Dash Dot ____ _ ____ _
 72
65
 73
4
 40
2.0
 49
1.25
 49
-0.25
 49
0.25
 49
-0.25
  0
LTYPE
  5
411
  2
DASHED
 70
0
  3
Dashed __ __ __ __ __
 72
65
 73
2
 40
0.75
 49
0.5
 49
-0.25
  0
LTYPE
  5
43B
  2
DOTTED
 70
0
  3
Dotted .  .  .  .
 72
65
 73
2
 40
0.2
 49
0.0
 49
-0.2
  0
ENDTAB
  0
TABLE
  2
STYLE
  70
4
  0
STYLE
  2
KICAD
  70
0
  40
0
  41
1
  42
1
  50
0
  71
0
  3
isocp.shx
  0
STYLE
  2
KICADB
  70
0
  40
0
  41
1
  42
1
  50
0
  71
0
  3
isocp.shx
  0
STYLE
  2
KICADI
  70
0
  40
0
  41
1
  42
1
  50
15
  71
0
  3
isocp.shx
  0
STYLE
  2
KICADBI
  70
0
  40
0
  41
1
  42
1
  50
15
  71
0
  3
isocp.shx
  0
ENDTAB
  0
TABLE
  2
LAYER
  70
1
  0
LAYER
  2
BLACK
  70
0
  62
7
  6
CONTINUOUS
  0
ENDTAB
  0
ENDSEC
  0
SECTION
  2
ENTITIES
0
LINE
8
BLACK
6
CONTINUOUS
10
139.7
20
-149.161
11
139.7
21
-129.159
0
ARC
8
BLACK
10
113.175
20
-68.7619
40
3.57264
50
-93.899
51
-3.19897
0
ARC
8
BLACK
10
123.092
20
-68.9613
40
1.27
50
-0
51
90
0
ARC
8
BLACK
10
43.561
20
-74.2313
40
1.905
50
90
51
180
0
LINE
8
BLACK
6
CONTINUOUS
10
41.656
20
-74.2313
11
41.656
21
-149.161
0
LINE
8
BLACK
6
CONTINUOUS
10
112.932
20
-72.3263
11
76.2
21
-72.3263
0
LINE
8
BLACK
6
CONTINUOUS
10
137.795
20
-151.066
11
43.561
21
-151.066
0
LINE
8
BLACK
6
CONTINUOUS
10
123.092
20
-67.6913
11
118.013
21
-67.6913
0
ARC
8
BLACK
10
43.561
20
-149.161
40
1.905
50
-180
51
-90
0
ARC
8
BLACK
10
137.795
20
-74.0412
40
1.905
50
-0
51
90
0
LINE
8
BLACK
6
CONTINUOUS
10
76.2
20
-72.3263
11
43.561
21
-72.3263
0
LINE
8
BLACK
6
CONTINUOUS
10
137.795
20
-72.1362
11
127.537
21
-72.1362
0
ARC
8
BLACK
10
137.795
20
-149.161
40
1.905
50
-90
51
-0
0
LINE
8
BLACK
6
CONTINUOUS
10
139.7
20
-74.0412
11
139.7
21
-129.159
0
ARC
8
BLACK
10
118.013
20
-68.9613
40
1.27
50
90
51
180
0
ARC
8
BLACK
10
127.726
20
-68.7732
40
3.36827
50
-176.8
51
-93.2
0
CIRCLE
8
BLACK
10
62.865
20
-130.746
40
1.2
0
CIRCLE
8
BLACK
10
120.65
20
-71.5007
40
1.2
0
CIRCLE
8
BLACK
10
120.015
20
-92.6462
40
1.2
0
CIRCLE
8
BLACK
10
120.015
20
-130.746
40
1.2
0
CIRCLE
8
BLACK
10
62.865
20
-92.6487
40
1.2
0
LINE
8
BLACK
6
CONTINUOUS
10
46.3375
20
-133.781
11
46.3375
21
-146.781
0
ARC
8
BLACK
10
78.8874
20
-95.6813
40
0.500087
50
0.00996773
51
89.99
0
LINE
8
BLACK
6
CONTINUOUS
10
103.987
20
-109.181
11
116.987
21
-109.181
0
ARC
8
BLACK
10
59.8374
20
-114.731
40
0.500087
50
0.00996773
51
89.99
0
ARC
8
BLACK
10
97.9374
20
-95.6813
40
0.50008
50
0.00916586
51
89.9908
0
LINE
8
BLACK
6
CONTINUOUS
10
103.987
20
-133.281
11
116.987
21
-133.281
0
ARC
8
BLACK
10
78.8875
20
-108.681
40
0.499964
50
-90.0041
51
0.00412559
0
ARC
8
BLACK
10
136.037
20
-133.781
40
0.500015
50
0.00171882
51
89.9983
0
LINE
8
BLACK
6
CONTINUOUS
10
79.3875
20
-114.731
11
79.3875
21
-127.731
0
LINE
8
BLACK
6
CONTINUOUS
10
122.537
20
-114.731
11
122.537
21
-127.731
0
ARC
8
BLACK
10
84.9376
20
-108.681
40
0.500087
50
-179.99
51
-90.01
0
ARC
8
BLACK
10
84.9376
20
-127.731
40
0.500087
50
-179.99
51
-90.01
0
LINE
8
BLACK
6
CONTINUOUS
10
65.3875
20
-114.731
11
65.3875
21
-127.731
0
LINE
8
BLACK
6
CONTINUOUS
10
84.4375
20
-95.6812
11
84.4375
21
-108.681
0
LINE
8
BLACK
6
CONTINUOUS
10
46.3375
20
-114.731
11
46.3375
21
-127.731
0
LINE
8
BLACK
6
CONTINUOUS
10
98.4375
20
-76.6312
11
98.4375
21
-89.6312
0
ARC
8
BLACK
10
123.037
20
-127.731
40
0.5
50
-180
51
-90
0
ARC
8
BLACK
10
46.8376
20
-89.6312
40
0.500087
50
-179.99
51
-90.01
0
ARC
8
BLACK
10
97.9375
20
-108.681
40
0.499971
50
-90.0033
51
0.00332335
0
LINE
8
BLACK
6
CONTINUOUS
10
103.987
20
-76.1312
11
116.987
21
-76.1312
0
LINE
8
BLACK
6
CONTINUOUS
10
103.987
20
-128.231
11
116.987
21
-128.231
0
LINE
8
BLACK
6
CONTINUOUS
10
123.037
20
-133.281
11
136.037
21
-133.281
0
LINE
8
BLACK
6
CONTINUOUS
10
117.487
20
-133.781
11
117.487
21
-146.781
0
LINE
8
BLACK
6
CONTINUOUS
10
65.3875
20
-133.781
11
65.3875
21
-146.781
0
LINE
8
BLACK
6
CONTINUOUS
10
65.8875
20
-128.231
11
78.8875
21
-128.231
0
LINE
8
BLACK
6
CONTINUOUS
10
46.8375
20
-109.181
11
59.8375
21
-109.181
0
ARC
8
BLACK
10
116.987
20
-114.731
40
0.500015
50
0.00171882
51
89.9983
0
ARC
8
BLACK
10
116.987
20
-133.781
40
0.500015
50
0.00171882
51
89.9983
0
ARC
8
BLACK
10
103.987
20
-76.6312
40
0.499971
50
-270.003
51
-179.997
0
LINE
8
BLACK
6
CONTINUOUS
10
122.537
20
-95.6812
11
122.537
21
-108.681
0
ARC
8
BLACK
10
116.987
20
-146.781
40
0.500035
50
-89.996
51
-0.00401042
0
LINE
8
BLACK
6
CONTINUOUS
10
123.037
20
-114.231
11
136.037
21
-114.231
0
LINE
8
BLACK
6
CONTINUOUS
10
46.3375
20
-95.6812
11
46.3375
21
-108.681
0
LINE
8
BLACK
6
CONTINUOUS
10
46.8375
20
-147.281
11
59.8375
21
-147.281
0
LINE
8
BLACK
6
CONTINUOUS
10
46.8375
20
-76.1312
11
59.8375
21
-76.1312
0
LINE
8
BLACK
6
CONTINUOUS
10
123.037
20
-90.1312
11
136.037
21
-90.1312
0
LINE
8
BLACK
6
CONTINUOUS
10
123.037
20
-109.181
11
136.037
21
-109.181
0
LINE
8
BLACK
6
CONTINUOUS
10
98.4375
20
-114.731
11
98.4375
21
-127.731
0
LINE
8
BLACK
6
CONTINUOUS
10
117.487
20
-114.731
11
117.487
21
-127.731
0
ARC
8
BLACK
10
116.987
20
-127.731
40
0.500035
50
-89.996
51
-0.00401042
0
LINE
8
BLACK
6
CONTINUOUS
10
103.987
20
-147.281
11
116.987
21
-147.281
0
ARC
8
BLACK
10
97.9374
20
-76.6313
40
0.50008
50
0.00916586
51
89.9908
0
ARC
8
BLACK
10
59.8374
20
-95.6813
40
0.500087
50
0.00996773
51
89.99
0
ARC
8
BLACK
10
136.037
20
-146.781
40
0.500035
50
-89.996
51
-0.00401042
0
LINE
8
BLACK
6
CONTINUOUS
10
46.3375
20
-76.6312
11
46.3375
21
-89.6312
0
ARC
8
BLACK
10
103.988
20
-146.781
40
0.500015
50
-179.998
51
-90.0017
0
LINE
8
BLACK
6
CONTINUOUS
10
103.987
20
-90.1312
11
116.987
21
-90.1312
0
LINE
8
BLACK
6
CONTINUOUS
10
84.4375
20
-114.731
11
84.4375
21
-127.731
0
LINE
8
BLACK
6
CONTINUOUS
10
103.487
20
-133.781
11
103.487
21
-146.781
0
ARC
8
BLACK
10
136.037
20
-127.731
40
0.5
50
-90
51
-0
0
LINE
8
BLACK
6
CONTINUOUS
10
60.3375
20
-95.6812
11
60.3375
21
-108.681
0
ARC
8
BLACK
10
97.9375
20
-146.781
40
0.499971
50
-90.0033
51
0.00332335
0
ARC
8
BLACK
10
46.8376
20
-127.731
40
0.500087
50
-179.99
51
-90.01
0
LINE
8
BLACK
6
CONTINUOUS
10
117.487
20
-95.6812
11
117.487
21
-108.681
0
ARC
8
BLACK
10
46.8375
20
-133.781
40
0.499964
50
-270.004
51
-179.996
0
LINE
8
BLACK
6
CONTINUOUS
10
46.8375
20
-128.231
11
59.8375
21
-128.231
0
LINE
8
BLACK
6
CONTINUOUS
10
98.4375
20
-133.781
11
98.4375
21
-146.781
0
LINE
8
BLACK
6
CONTINUOUS
10
65.8875
20
-76.1312
11
78.8875
21
-76.1312
0
ARC
8
BLACK
10
59.8374
20
-76.6313
40
0.500087
50
0.00996773
51
89.99
0
LINE
8
BLACK
6
CONTINUOUS
10
65.8875
20
-109.181
11
78.8875
21
-109.181
0
LINE
8
BLACK
6
CONTINUOUS
10
84.9375
20
-133.281
11
97.9375
21
-133.281
0
LINE
8
BLACK
6
CONTINUOUS
10
46.8375
20
-133.281
11
59.8375
21
-133.281
0
ARC
8
BLACK
10
136.037
20
-95.6813
40
0.500015
50
0.00171882
51
89.9983
0
ARC
8
BLACK
10
123.038
20
-76.6313
40
0.500035
50
90.004
51
179.996
0
ARC
8
BLACK
10
103.987
20
-133.781
40
0.499971
50
-270.003
51
-179.997
0
ARC
8
BLACK
10
65.8875
20
-95.6812
40
0.499964
50
-270.004
51
-179.996
0
LINE
8
BLACK
6
CONTINUOUS
10
123.037
20
-147.281
11
136.037
21
-147.281
0
ARC
8
BLACK
10
65.8875
20
-133.781
40
0.499964
50
-270.004
51
-179.996
0
LINE
8
BLACK
6
CONTINUOUS
10
65.3875
20
-76.6312
11
65.3875
21
-89.6312
0
ARC
8
BLACK
10
78.8874
20
-114.731
40
0.500087
50
0.00996773
51
89.99
0
ARC
8
BLACK
10
97.9374
20
-133.781
40
0.50008
50
0.00916586
51
89.9908
0
ARC
8
BLACK
10
65.8875
20
-76.6312
40
0.499964
50
-270.004
51
-179.996
0
ARC
8
BLACK
10
116.987
20
-95.6813
40
0.500015
50
0.00171882
51
89.9983
0
ARC
8
BLACK
10
84.9375
20
-95.6812
40
0.499964
50
-270.004
51
-179.996
0
ARC
8
BLACK
10
65.8876
20
-146.781
40
0.500087
50
-179.99
51
-90.01
0
ARC
8
BLACK
10
116.987
20
-76.6313
40
0.500015
50
0.00171882
51
89.9983
0
ARC
8
BLACK
10
123.038
20
-108.681
40
0.500015
50
-179.998
51
-90.0017
0
LINE
8
BLACK
6
CONTINUOUS
10
122.537
20
-76.6312
11
122.537
21
-89.6312
0
ARC
8
BLACK
10
103.988
20
-108.681
40
0.500015
50
-179.998
51
-90.0017
0
LINE
8
BLACK
6
CONTINUOUS
10
84.9375
20
-90.1312
11
97.9375
21
-90.1312
0
LINE
8
BLACK
6
CONTINUOUS
10
46.8375
20
-114.231
11
59.8375
21
-114.231
0
LINE
8
BLACK
6
CONTINUOUS
10
79.3875
20
-76.6312
11
79.3875
21
-89.6312
0
LINE
8
BLACK
6
CONTINUOUS
10
123.037
20
-128.231
11
136.037
21
-128.231
0
LINE
8
BLACK
6
CONTINUOUS
10
84.9375
20
-76.1312
11
97.9375
21
-76.1312
0
LINE
8
BLACK
6
CONTINUOUS
10
60.3375
20
-133.781
11
60.3375
21
-146.781
0
LINE
8
BLACK
6
CONTINUOUS
10
65.8875
20
-114.231
11
78.8875
21
-114.231
0
LINE
8
BLACK
6
CONTINUOUS
10
122.537
20
-133.781
11
122.537
21
-146.781
0
ARC
8
BLACK
10
136.037
20
-114.731
40
0.5
50
-0
51
90
0
LINE
8
BLACK
6
CONTINUOUS
10
65.8875
20
-90.1312
11
78.8875
21
-90.1312
0
ARC
8
BLACK
10
103.988
20
-127.731
40
0.500015
50
-179.998
51
-90.0017
0
ARC
8
BLACK
10
59.8375
20
-127.731
40
0.499964
50
-90.0041
51
0.00412559
0
ARC
8
BLACK
10
136.037
20
-76.6313
40
0.500015
50
0.00171882
51
89.9983
0
LINE
8
BLACK
6
CONTINUOUS
10
84.9375
20
-128.231
11
97.9375
21
-128.231
0
LINE
8
BLACK
6
CONTINUOUS
10
46.8375
20
-95.1812
11
59.8375
21
-95.1812
0
ARC
8
BLACK
10
59.8375
20
-89.6313
40
0.499964
50
-90.0041
51
0.00412559
0
ARC
8
BLACK
10
103.987
20
-114.731
40
0.499971
50
-270.003
51
-179.997
0
ARC
8
BLACK
10
59.8374
20
-133.781
40
0.500087
50
0.00996773
51
89.99
0
LINE
8
BLACK
6
CONTINUOUS
10
103.487
20
-76.6312
11
103.487
21
-89.6312
0
ARC
8
BLACK
10
46.8375
20
-114.731
40
0.499964
50
-270.004
51
-179.996
0
LINE
8
BLACK
6
CONTINUOUS
10
117.487
20
-76.6312
11
117.487
21
-89.6312
0
LINE
8
BLACK
6
CONTINUOUS
10
84.4375
20
-76.6312
11
84.4375
21
-89.6312
0
ARC
8
BLACK
10
59.8375
20
-146.781
40
0.499964
50
-90.0041
51
0.00412559
0
ARC
8
BLACK
10
65.8875
20
-114.731
40
0.499964
50
-270.004
51
-179.996
0
LINE
8
BLACK
6
CONTINUOUS
10
84.4375
20
-133.781
11
84.4375
21
-146.781
0
ARC
8
BLACK
10
84.9375
20
-114.731
40
0.499964
50
-270.004
51
-179.996
0
ARC
8
BLACK
10
123.038
20
-133.781
40
0.500035
50
90.004
51
179.996
0
LINE
8
BLACK
6
CONTINUOUS
10
123.037
20
-76.1312
11
136.037
21
-76.1312
0
ARC
8
BLACK
10
97.9375
20
-127.731
40
0.499971
50
-90.0033
51
0.00332335
0
ARC
8
BLACK
10
123.038
20
-114.731
40
0.500035
50
90.004
51
179.996
0
ARC
8
BLACK
10
46.8375
20
-76.6312
40
0.499964
50
-270.004
51
-179.996
0
LINE
8
BLACK
6
CONTINUOUS
10
84.9375
20
-147.281
11
97.9375
21
-147.281
0
LINE
8
BLACK
6
CONTINUOUS
10
84.9375
20
-114.231
11
97.9375
21
-114.231
0
LINE
8
BLACK
6
CONTINUOUS
10
84.9375
20
-95.1812
11
97.9375
21
-95.1812
0
ARC
8
BLACK
10
46.8376
20
-146.781
40
0.500087
50
-179.99
51
-90.01
0
ARC
8
BLACK
10
97.9375
20
-89.6313
40
0.499971
50
-90.0033
51
0.00332335
0
ARC
8
BLACK
10
84.9376
20
-146.781
40
0.500087
50
-179.99
51
-90.01
0
LINE
8
BLACK
6
CONTINUOUS
10
123.037
20
-95.1812
11
136.037
21
-95.1812
0
ARC
8
BLACK
10
84.9376
20
-89.6312
40
0.500087
50
-179.99
51
-90.01
0
LINE
8
BLACK
6
CONTINUOUS
10
103.987
20
-95.1812
11
116.987
21
-95.1812
0
LINE
8
BLACK
6
CONTINUOUS
10
136.537
20
-133.781
11
136.537
21
-146.781
0
LINE
8
BLACK
6
CONTINUOUS
10
103.487
20
-114.731
11
103.487
21
-127.731
0
LINE
8
BLACK
6
CONTINUOUS
10
103.487
20
-95.6812
11
103.487
21
-108.681
0
ARC
8
BLACK
10
136.037
20
-89.6312
40
0.500035
50
-89.996
51
-0.00401042
0
LINE
8
BLACK
6
CONTINUOUS
10
65.8875
20
-133.281
11
78.8875
21
-133.281
0
ARC
8
BLACK
10
78.8875
20
-89.6313
40
0.499964
50
-90.0041
51
0.00412559
0
ARC
8
BLACK
10
84.9375
20
-76.6312
40
0.499964
50
-270.004
51
-179.996
0
LINE
8
BLACK
6
CONTINUOUS
10
60.3375
20
-114.731
11
60.3375
21
-127.731
0
ARC
8
BLACK
10
46.8375
20
-95.6812
40
0.499964
50
-270.004
51
-179.996
0
LINE
8
BLACK
6
CONTINUOUS
10
98.4375
20
-95.6812
11
98.4375
21
-108.681
0
LINE
8
BLACK
6
CONTINUOUS
10
79.3875
20
-95.6812
11
79.3875
21
-108.681
0
ARC
8
BLACK
10
78.8874
20
-76.6313
40
0.500087
50
0.00996773
51
89.99
0
LINE
8
BLACK
6
CONTINUOUS
10
79.3875
20
-133.781
11
79.3875
21
-146.781
0
ARC
8
BLACK
10
97.9374
20
-114.731
40
0.50008
50
0.00916586
51
89.9908
0
LINE
8
BLACK
6
CONTINUOUS
10
65.8875
20
-95.1812
11
78.8875
21
-95.1812
0
ARC
8
BLACK
10
65.8876
20
-89.6312
40
0.500087
50
-179.99
51
-90.01
0
LINE
8
BLACK
6
CONTINUOUS
10
65.3875
20
-95.6812
11
65.3875
21
-108.681
0
ARC
8
BLACK
10
65.8876
20
-108.681
40
0.500087
50
-179.99
51
-90.01
0
LINE
8
BLACK
6
CONTINUOUS
10
46.8375
20
-90.1312
11
59.8375
21
-90.1312
0
ARC
8
BLACK
10
103.988
20
-89.6312
40
0.500015
50
-179.998
51
-90.0017
0
LINE
8
BLACK
6
CONTINUOUS
10
60.3375
20
-76.6312
11
60.3375
21
-89.6312
0
ARC
8
BLACK
10
78.8875
20
-127.731
40
0.499964
50
-90.0041
51
0.00412559
0
ARC
8
BLACK
10
84.9375
20
-133.781
40
0.499964
50
-270.004
51
-179.996
0
LINE
8
BLACK
6
CONTINUOUS
10
136.537
20
-95.6812
11
136.537
21
-108.681
0
LINE
8
BLACK
6
CONTINUOUS
10
84.9375
20
-109.181
11
97.9375
21
-109.181
0
LINE
8
BLACK
6
CONTINUOUS
10
136.537
20
-76.6312
11
136.537
21
-89.6312
0
ARC
8
BLACK
10
116.987
20
-108.681
40
0.500035
50
-89.996
51
-0.00401042
0
LINE
8
BLACK
6
CONTINUOUS
10
65.8875
20
-147.281
11
78.8875
21
-147.281
0
ARC
8
BLACK
10
136.037
20
-108.681
40
0.500035
50
-89.996
51
-0.00401042
0
ARC
8
BLACK
10
59.8375
20
-108.681
40
0.499964
50
-90.0041
51
0.00412559
0
ARC
8
BLACK
10
103.987
20
-95.6812
40
0.499971
50
-270.003
51
-179.997
0
ARC
8
BLACK
10
78.8875
20
-146.781
40
0.499964
50
-90.0041
51
0.00412559
0
ARC
8
BLACK
10
123.038
20
-89.6312
40
0.500015
50
-179.998
51
-90.0017
0
LINE
8
BLACK
6
CONTINUOUS
10
136.537
20
-114.731
11
136.537
21
-127.731
0
ARC
8
BLACK
10
123.038
20
-146.781
40
0.500015
50
-179.998
51
-90.0017
0
ARC
8
BLACK
10
78.8874
20
-133.781
40
0.500087
50
0.00996773
51
89.99
0
LINE
8
BLACK
6
CONTINUOUS
10
103.987
20
-114.231
11
116.987
21
-114.231
0
ARC
8
BLACK
10
65.8876
20
-127.731
40
0.500087
50
-179.99
51
-90.01
0
ARC
8
BLACK
10
123.038
20
-95.6813
40
0.500035
50
90.004
51
179.996
0
ARC
8
BLACK
10
46.8376
20
-108.681
40
0.500087
50
-179.99
51
-90.01
0
ARC
8
BLACK
10
116.987
20
-89.6312
40
0.500035
50
-89.996
51
-0.00401042
0
CIRCLE
8
BLACK
10
224.333
20
-92.7
40
1.2
0
CIRCLE
8
BLACK
10
167.183
20
-130.8
40
1.2
0
CIRCLE
8
BLACK
10
167.183
20
-92.7025
40
1.2
0
CIRCLE
8
BLACK
10
224.333
20
-130.8
40
1.2
0
CIRCLE
8
BLACK
10
224.968
20
-71.5545
40
1.2
0
LINE
8
BLACK
6
CONTINUOUS
10
181.788
20
-66.03
11
181.788
21
-71.11
0
LINE
8
BLACK
6
CONTINUOUS
10
244.018
20
-62.22
11
244.018
21
-129.213
0
ARC
8
BLACK
10
218.434
20
-47.0843
40
2.1932
50
-85.7523
51
0.047703
0
ARC
8
BLACK
10
242.113
20
-62.22
40
1.905
50
-0
51
90
0
CIRCLE
8
BLACK
10
218.215
20
-35.3985
40
1.27
0
ARC
8
BLACK
10
215.7
20
-60.753
40
7.42743
50
34.885
51
91.985
0
LINE
8
BLACK
6
CONTINUOUS
10
220.627
20
-47.0825
11
220.627
21
-35.6525
0
LINE
8
BLACK
6
CONTINUOUS
10
184.433
20
-49.2715
11
218.596
21
-49.2715
0
ARC
8
BLACK
10
229.792
20
-50.0218
40
10.2964
50
-140.975
51
-88.5751
0
LINE
8
BLACK
6
CONTINUOUS
10
180.518
20
-72.38
11
147.879
21
-72.38
0
ARC
8
BLACK
10
183.058
20
-54.6
40
1.27
50
90
51
180
0
LINE
8
BLACK
6
CONTINUOUS
10
183.417
20
-31.0805
11
215.801
21
-31.0805
0
CIRCLE
8
BLACK
10
218.215
20
-47.0825
40
1.27
0
LINE
8
BLACK
6
CONTINUOUS
10
242.113
20
-151.12
11
147.879
21
-151.12
0
LINE
8
BLACK
6
CONTINUOUS
10
145.974
20
-74.285
11
145.974
21
-149.215
0
LINE
8
BLACK
6
CONTINUOUS
10
215.443
20
-53.33
11
183.058
21
-53.33
0
ARC
8
BLACK
10
180.518
20
-71.11
40
1.27
50
-90
51
-0
0
ARC
8
BLACK
10
215.693
20
-36.0277
40
4.94835
50
4.34815
51
88.7482
0
ARC
8
BLACK
10
147.879
20
-149.215
40
1.905
50
-180
51
-90
0
LINE
8
BLACK
6
CONTINUOUS
10
242.113
20
-60.315
11
230.048
21
-60.315
0
LINE
8
BLACK
6
CONTINUOUS
10
182.147
20
-32.3505
11
182.147
21
-46.9855
0
ARC
8
BLACK
10
242.113
20
-149.215
40
1.905
50
-90
51
-0
0
ARC
8
BLACK
10
183.417
20
-32.3505
40
1.27
50
90
51
180
0
LINE
8
BLACK
6
CONTINUOUS
10
244.018
20
-149.215
11
244.018
21
-129.213
0
ARC
8
BLACK
10
147.879
20
-74.285
40
1.905
50
90
51
180
0
ARC
8
BLACK
10
184.394
20
-47.0247
40
2.24712
50
-181
51
-89
0
LINE
8
BLACK
6
CONTINUOUS
10
181.788
20
-54.6
11
181.788
21
-66.03
  0
ENDSEC
  0
EOF
